<svg width="10" height="11" viewBox="0 0 10 11" fill="none" xmlns="http://www.w3.org/2000/svg">
<path d="M8.85245 1.71969H7.40811C7.18519 0.719511 6.2317 0.00128977 5.12509 0H4.19325C3.08664 0.00128977 2.13315 0.719511 1.91025 1.71969H0.465911C0.208593 1.71969 0 1.91217 0 2.14961C0 2.38705 0.208593 2.57954 0.465911 2.57954H0.931823V8.16855C0.933373 9.35516 1.97547 10.3168 3.26142 10.3182H6.05694C7.34289 10.3168 8.38499 9.35516 8.38654 8.16855V2.57954H8.85245C9.10977 2.57954 9.31836 2.38707 9.31836 2.14963C9.31836 1.91219 9.10977 1.71969 8.85245 1.71969ZM4.19327 7.30871C4.19327 7.54615 3.98467 7.73863 3.72736 7.73863C3.47002 7.73863 3.26142 7.54615 3.26142 7.30871V4.72917C3.26142 4.49173 3.47002 4.29925 3.72733 4.29925C3.98465 4.29925 4.19325 4.49173 4.19325 4.72917V7.30871H4.19327ZM6.05694 7.30871C6.05694 7.54615 5.84834 7.73863 5.59102 7.73863C5.33371 7.73863 5.12511 7.54615 5.12511 7.30871V4.72917C5.12511 4.49173 5.33371 4.29925 5.59102 4.29925C5.84834 4.29925 6.05694 4.49173 6.05694 4.72917V7.30871ZM2.87518 1.71969C3.07336 1.20477 3.6011 0.8605 4.19327 0.859835H5.12511C5.71728 0.8605 6.24502 1.20477 6.4432 1.71969H2.87518Z" fill="#CB0101"/>
</svg>
