<svg width="2593" height="509" viewBox="0 0 2593 509" fill="none" xmlns="http://www.w3.org/2000/svg">
<g opacity="0.35">
<path d="M147.887 478.243C232.25 494.026 325.784 493.551 409.481 476.721C509.017 456.754 590.879 415.679 664.739 372.702C738.599 329.725 808.291 283.515 894.822 249.19C981.52 214.865 1090.06 193.092 1192.93 206.403C1257.45 214.77 1315.47 236.259 1380.66 242.82C1586.9 263.547 1772.97 131.764 1977.88 156.485C2065.41 167.039 2135.77 204.977 2221.46 219.905C2333.51 239.492 2465.22 213.439 2532.08 158.482" stroke="#B5B5B5" stroke-opacity="0.8" stroke-miterlimit="10"/>
<path d="M140.884 469.495C212.409 480.62 291.104 481.951 364.964 473.489C379.47 471.872 393.808 469.78 407.813 467.403C465.5 457.515 517.186 441.731 564.036 423.285C599.882 409.213 633.061 393.62 665.406 377.266C684.412 367.662 703.419 357.774 722.926 347.6C767.442 324.115 812.458 298.538 859.475 275.433C872.98 268.777 886.652 262.406 900.49 256.321C935.169 241.108 972.849 227.891 1012.2 218.193C1067.88 204.501 1127.07 197.75 1186.09 203.17C1248.95 208.97 1306.97 227.796 1372.66 233.692C1382.5 234.547 1392.17 235.118 1401.84 235.498C1464.53 237.685 1524.88 229.032 1585.07 215.816C1681.1 194.708 1776.14 161.714 1873.17 151.731C1906.52 148.308 1940.03 147.642 1974.21 151.065C2042.23 157.911 2100.42 180.35 2163.28 196.99C2181.78 201.839 2200.79 206.308 2220.46 209.541C2333.67 228.652 2465.05 206.213 2531.24 157.341" stroke="#B5B5B5" stroke-opacity="0.8" stroke-miterlimit="10"/>
<path d="M133.881 460.842C206.574 469.97 286.936 470.636 362.296 463.315C377.135 461.888 391.64 460.177 405.979 458.085C464.666 449.623 517.352 436.216 564.369 420.813C600.215 408.928 633.06 395.996 666.072 381.924C685.412 373.652 704.919 365 725.427 355.586C772.11 334.003 819.294 307.855 865.977 283.609C879.315 276.668 892.654 269.918 906.325 263.357C940.004 247.193 975.683 232.74 1012.86 221.711C1065.72 206.213 1121.57 196.895 1179.09 199.937C1240.11 203.075 1298.47 219.429 1364.49 224.658C1374.33 225.419 1384.16 225.99 1394 226.275C1457.19 228.462 1517.54 221.806 1578.23 209.921C1675.1 191.095 1771.8 158.576 1869.34 147.642C1902.68 143.934 1936.53 142.793 1970.71 145.55C2038.9 151.065 2098.09 171.508 2161.94 187.101C2180.78 191.665 2199.96 195.849 2219.8 199.081C2334 217.622 2465.22 198.986 2530.91 156.104" stroke="#B5B5B5" stroke-opacity="0.8" stroke-miterlimit="10"/>
<path d="M126.879 452.19C200.739 459.226 282.768 459.417 359.796 453.236C374.968 452 389.807 450.574 404.312 448.862C464.167 441.731 517.853 430.797 564.87 418.341C600.716 408.738 633.394 398.374 666.74 386.489C686.247 379.548 706.587 372.131 727.928 363.479C776.612 343.797 826.297 317.079 872.313 291.692C885.485 284.466 898.656 277.239 911.828 270.393C944.506 253.184 978.185 237.59 1013.36 225.229C1063.22 207.829 1115.9 194.803 1171.92 196.61C1230.94 198.511 1289.63 210.967 1356.15 215.531C1365.99 216.197 1375.99 216.672 1385.83 217.052C1449.52 219.239 1509.88 214.58 1570.9 204.121C1668.6 187.577 1766.8 155.629 1865.17 143.744C1898.68 139.751 1932.53 138.134 1966.87 140.226C2035.4 144.41 2095.42 162.856 2160.11 177.403C2179.12 181.682 2198.62 185.675 2218.63 188.813C2334.01 206.879 2464.89 191.856 2530.08 155.059" stroke="#B5B5B5" stroke-opacity="0.8" stroke-miterlimit="10"/>
<path d="M119.876 443.443C194.736 448.387 278.6 448.102 357.128 442.968C372.467 442.017 387.639 440.781 402.478 439.449C463.499 433.745 518.019 425.282 565.203 415.679C601.049 408.358 633.561 400.466 667.239 390.958C687.08 385.348 707.921 379.167 730.262 371.276C781.114 353.4 832.966 326.207 878.649 299.774C891.82 292.167 904.491 284.656 917.329 277.335C949.007 259.174 980.852 242.344 1013.86 228.652C1060.71 209.446 1110.07 195.184 1164.92 193.282C1222.11 191.285 1281.13 202.41 1347.98 206.403C1357.99 206.974 1367.99 207.449 1377.83 207.734C1442.02 209.921 1502.37 207.259 1563.89 198.131C1662.43 183.774 1762.13 152.397 1861.17 139.561C1894.85 135.282 1928.69 133.19 1963.04 134.616C2031.9 137.564 2092.75 153.918 2158.28 167.515C2177.62 171.508 2197.29 175.311 2217.46 178.354C2334.01 195.944 2464.72 184.63 2529.08 153.823" stroke="#B5B5B5" stroke-opacity="0.8" stroke-miterlimit="10"/>
<path d="M112.873 434.79C188.9 437.643 274.598 436.787 354.46 432.888C370.132 432.128 385.638 431.177 400.81 430.226C462.999 425.947 518.519 419.862 565.702 413.206C601.549 408.167 633.727 402.842 668.073 395.616C688.247 391.338 709.588 386.298 732.929 379.262C785.782 363.288 839.968 335.619 885.317 307.951C898.322 300.059 910.827 292.167 923.164 284.465C953.675 265.354 983.686 247.288 1014.53 232.265C1058.38 211.157 1104.4 194.518 1157.92 190.049C1213.27 185.485 1272.46 194.042 1339.81 197.37C1349.82 197.845 1359.99 198.226 1369.99 198.606C1434.68 200.793 1495.04 200.032 1557.06 192.426C1656.43 180.16 1757.8 149.449 1857.33 135.757C1891.18 131.193 1925.02 128.626 1959.54 129.386C2028.73 131.003 2090.42 145.36 2156.94 157.911C2176.61 161.619 2196.46 165.232 2216.96 168.18C2334.5 185.295 2465.05 177.593 2528.91 152.872" stroke="#B5B5B5" stroke-opacity="0.8" stroke-miterlimit="10"/>
<path d="M105.871 426.138C182.899 426.993 270.43 425.567 351.96 422.715C367.965 422.144 383.804 421.574 399.143 420.813C462.333 417.961 518.853 414.252 566.203 410.544C602.216 407.692 634.228 405.03 668.74 400.085C689.248 397.138 711.089 393.334 735.431 387.059C790.451 372.892 846.804 344.747 891.82 316.033C904.658 307.761 916.996 299.583 928.834 291.406C958.344 271.249 986.354 251.947 1015.2 235.688C1056.21 212.773 1098.56 193.662 1151.08 186.721C1204.43 179.685 1264.12 185.58 1331.81 188.242C1341.98 188.623 1351.99 189.003 1362.16 189.288C1427.51 191.475 1487.7 192.711 1550.06 186.436C1650.26 176.452 1753.13 146.311 1853.33 131.573C1887.18 126.629 1921.36 123.682 1955.87 123.777C2025.39 124.062 2087.92 136.423 2155.27 147.928C2175.11 151.35 2195.29 154.678 2215.96 157.626C2334.67 174.265 2464.89 170.272 2528.24 151.446" stroke="#B5B5B5" stroke-opacity="0.8" stroke-miterlimit="10"/>
<path d="M98.8691 417.39C177.064 416.154 266.263 414.253 349.292 412.541C365.632 412.161 381.637 411.876 397.31 411.495C461.666 410.069 519.02 408.738 566.537 407.977C602.55 407.407 634.395 407.407 669.241 404.649C690.082 403.033 712.423 400.466 737.765 395.046C794.786 382.78 853.474 354.066 898.156 324.21C910.994 315.652 922.832 307 934.336 298.538C962.846 277.429 988.856 256.892 1015.53 239.302C1053.38 214.485 1092.56 192.997 1143.74 183.583C1195.1 174.075 1255.12 177.213 1323.31 179.305C1333.48 179.59 1343.65 179.875 1353.99 180.256C1419.84 182.538 1480.03 185.675 1542.89 180.826C1643.92 173.029 1748.46 143.459 1849.16 127.865C1883.18 122.636 1917.36 119.213 1952.04 118.642C2021.89 117.596 2085.25 127.96 2153.44 138.419C2173.61 141.557 2193.96 144.695 2214.8 147.547C2334.67 163.711 2464.55 163.331 2527.24 150.59" stroke="#B5B5B5" stroke-opacity="0.8" stroke-miterlimit="10"/>
<path d="M91.8662 408.738C171.228 405.41 262.094 402.938 346.624 402.367C363.297 402.272 379.636 402.177 395.475 402.177C460.999 402.177 519.353 403.223 566.704 405.41C602.716 407.026 634.395 409.689 669.741 409.118C690.915 408.833 713.756 407.407 740.099 402.843C799.287 392.384 860.142 363.193 904.492 332.197C917.163 323.259 928.834 314.321 939.838 305.383C967.347 283.229 991.356 261.551 1016.03 242.629C1050.88 215.911 1086.56 192.141 1136.74 180.065C1185.93 168.18 1246.61 168.56 1315.31 169.987C1325.48 170.177 1335.81 170.462 1346.15 170.842C1412.51 173.124 1472.7 178.259 1535.89 174.741C1637.75 169.226 1743.79 140.226 1845.16 123.586C1879.34 118.072 1913.52 114.173 1948.37 112.937C2018.39 110.56 2082.58 118.832 2151.94 128.436C2172.28 131.288 2192.95 134.236 2213.96 136.898C2334.84 152.491 2464.55 155.914 2526.74 149.164" stroke="#B5B5B5" stroke-opacity="0.8" stroke-miterlimit="10"/>
<path d="M84.8633 400.085C165.225 394.665 257.925 391.718 344.123 392.288C360.963 392.383 377.635 392.669 393.974 392.954C460.665 394.285 519.853 397.803 567.37 402.938C603.383 406.836 634.894 412.065 670.574 413.777C692.081 414.823 715.423 414.633 742.766 410.829C803.955 402.272 867.311 372.606 910.994 340.469C923.498 331.246 935.002 321.928 945.506 312.61C971.849 289.505 994.023 266.59 1016.7 246.337C1048.71 217.813 1080.89 191.76 1129.74 177.022C1176.92 162.76 1237.94 160.383 1307.14 161.049C1317.47 161.144 1327.81 161.334 1338.31 161.714C1405.17 163.996 1465.36 171.032 1529.05 169.036C1631.75 165.708 1739.29 137.278 1841.33 119.783C1875.51 113.983 1910.02 109.609 1944.7 107.708C2015.06 103.999 2080.08 110.275 2150.27 118.832C2170.95 121.304 2191.79 124.157 2213.13 126.724C2335.17 141.842 2464.55 148.878 2526.24 148.213" stroke="#B5B5B5" stroke-opacity="0.8" stroke-miterlimit="10"/>
<path d="M77.8604 391.337C159.39 383.826 253.757 380.403 341.455 382.019C358.628 382.305 375.634 382.875 392.14 383.541C459.998 386.298 520.019 392.193 567.703 400.275C603.716 406.455 635.061 414.347 671.074 418.246C693.081 420.623 716.757 421.668 745.1 418.626C808.29 411.875 873.98 381.734 917.329 348.455C929.833 338.947 940.837 329.249 951.008 319.55C976.35 295.495 996.524 271.344 1017.03 249.76C1046.04 219.334 1074.72 190.999 1122.4 173.599C1167.75 157.055 1229.11 151.73 1298.63 151.825C1308.97 151.825 1319.47 152.016 1329.98 152.396C1397.33 154.678 1457.52 163.711 1521.71 163.14C1625.25 162.094 1734.46 134.14 1836.99 115.694C1871.34 109.609 1905.85 104.76 1940.7 102.193C2011.39 97.1533 2077.25 101.432 2148.27 108.943C2169.11 111.13 2190.29 113.698 2211.79 116.265C2335 130.907 2464.05 141.652 2525.07 146.976" stroke="#B5B5B5" stroke-opacity="0.8" stroke-miterlimit="10"/>
<path d="M70.8584 382.686C153.388 373.177 249.589 369.089 338.788 371.941C356.294 372.512 373.467 373.272 390.307 374.318C459.165 378.502 520.353 386.774 568.037 397.804C604.05 406.171 635.395 416.725 671.741 422.905C694.082 426.613 718.425 428.8 747.602 426.613C812.958 421.669 880.816 391.053 923.832 356.633C936.169 346.745 947.007 336.666 956.844 326.587C981.186 301.485 999.359 276.194 1017.87 253.279C1043.87 221.046 1069.22 190.525 1115.73 170.367C1159.08 151.541 1220.77 143.364 1290.8 142.793C1301.3 142.698 1311.8 142.793 1322.47 143.174C1390.5 145.456 1450.52 156.485 1515.04 157.246C1619.41 158.482 1730.12 131.098 1833.33 111.702C1867.84 105.331 1902.35 99.9114 1937.36 96.7737C2008.39 90.4032 2075.08 92.6852 2147.1 99.2459C2168.28 101.147 2189.62 103.525 2211.29 105.997C2335.51 120.164 2464.39 134.521 2524.91 145.931" stroke="#B5B5B5" stroke-opacity="0.8" stroke-miterlimit="10"/>
<path d="M63.8555 374.033C147.552 362.433 245.421 357.869 336.287 361.767C354.126 362.528 371.633 363.574 388.639 365C458.664 370.61 520.686 381.259 568.537 395.236C604.55 405.79 635.728 419.102 672.408 427.469C695.082 432.604 719.925 435.931 750.102 434.505C817.46 431.368 887.652 400.276 930.334 364.81C942.505 354.636 953.175 344.177 962.512 333.718C985.687 307.666 1002.19 281.138 1018.53 256.892C1041.71 222.852 1063.72 190.049 1108.73 167.134C1150.25 146.026 1212.27 134.997 1282.63 133.761C1293.13 133.57 1303.8 133.665 1314.47 134.046C1383 136.328 1443.02 149.354 1508.04 151.541C1613.41 154.964 1725.45 128.151 1829.32 107.803C1863.84 101.147 1898.51 95.2523 1933.69 91.449C2005.05 83.7474 2072.58 84.0326 2145.44 89.5474C2166.94 91.1638 2188.45 93.3507 2210.29 95.7277C2335.67 109.42 2464.39 127.485 2524.24 144.885" stroke="#B5B5B5" stroke-opacity="0.8" stroke-miterlimit="10"/>
<path d="M56.8535 365.285C141.551 351.593 241.253 346.554 333.62 351.593C351.793 352.544 369.633 353.97 386.972 355.682C458.164 362.718 521.187 375.649 569.038 392.764C605.051 405.6 636.062 421.573 673.075 432.032C696.083 438.498 721.426 442.967 752.604 442.396C821.962 441.16 894.488 409.498 936.837 372.891C949.008 362.337 959.178 351.593 968.181 340.659C990.356 313.56 1004.86 285.891 1019.03 260.314C1039.21 224.373 1058.05 189.478 1101.73 163.806C1141.41 140.511 1203.6 126.439 1274.46 124.632C1284.96 124.347 1295.8 124.347 1306.47 124.727C1375.49 127.104 1435.52 142.032 1501.04 145.55C1607.24 151.255 1720.95 124.917 1825.32 103.714C1860 96.6779 1894.85 90.4025 1929.86 85.9336C2001.55 76.9008 2069.91 75.1894 2143.6 79.6582C2165.28 80.9894 2187.12 82.9861 2209.29 85.2681C2335.84 98.4845 2464.22 120.163 2523.57 143.648" stroke="#B5B5B5" stroke-opacity="0.8" stroke-miterlimit="10"/>
<path d="M49.8506 356.633C135.715 340.849 237.085 335.24 330.952 341.42C349.458 342.656 367.465 344.272 385.138 346.364C457.497 354.731 521.353 370.135 569.371 390.197C605.384 405.22 636.228 423.951 673.742 436.597C696.917 444.489 722.926 450.099 755.104 450.289C826.63 450.859 901.323 418.817 943.172 381.069C955.176 370.23 965.18 359.105 973.683 347.79C994.857 319.741 1007.36 290.836 1019.53 263.928C1036.71 226.18 1052.38 189.098 1094.56 160.669C1132.57 135.092 1194.93 118.167 1266.12 115.695C1276.79 115.315 1287.46 115.315 1298.47 115.695C1367.99 118.072 1428.01 134.997 1493.87 139.941C1600.91 147.928 1716.12 122.161 1821.15 99.9114C1856 92.5901 1890.85 85.8392 1926.03 80.7048C1998.05 70.2458 2067.24 66.6327 2141.94 70.1507C2163.94 71.1966 2186.12 72.9081 2208.29 75.1901C2335.84 87.836 2464.05 113.318 2522.74 142.793" stroke="#B5B5B5" stroke-opacity="0.8" stroke-miterlimit="10"/>
<path d="M42.8486 347.98C129.88 330.199 233.084 324.019 328.451 331.34C347.125 332.767 365.631 334.668 383.471 337.14C456.831 346.934 521.854 364.619 569.871 387.724C606.051 404.934 636.395 426.422 674.409 441.255C697.917 450.478 724.427 457.229 757.605 458.37C831.132 460.747 908.326 428.229 949.675 389.34C961.512 378.216 971.182 366.616 979.352 354.921C999.526 325.826 1010.03 295.78 1020.2 267.54C1034.54 227.891 1046.88 188.622 1087.56 157.435C1123.74 129.576 1186.26 109.799 1257.95 106.661C1268.62 106.186 1279.46 106.091 1290.46 106.471C1360.66 108.848 1420.51 127.77 1486.87 134.045C1594.74 144.219 1711.61 119.022 1817.15 95.9171C1852.17 88.3105 1887.01 81.0843 1922.36 75.2843C1994.55 63.4941 2064.74 57.8842 2140.27 60.3564C2162.44 61.117 2184.95 62.6384 2207.29 64.7302C2336.01 76.9007 2463.89 105.996 2522.07 141.461" stroke="#B5B5B5" stroke-opacity="0.8" stroke-miterlimit="10"/>
<path d="M35.8457 339.232C123.877 319.36 228.915 312.705 325.783 321.072C344.79 322.688 363.463 324.97 381.637 327.727C456.163 338.947 522.02 359.009 570.038 385.062C606.217 404.554 636.395 428.705 674.742 445.724C698.584 456.278 725.594 464.265 759.773 466.167C835.3 470.351 914.828 437.357 955.843 397.328C967.681 385.823 977.017 373.937 984.687 361.862C1003.69 331.816 1012.53 300.534 1020.37 270.963C1031.7 229.508 1041.04 188.052 1080.22 154.108C1114.73 124.062 1177.42 101.242 1249.62 97.5338C1260.45 96.9633 1271.29 96.8682 1282.46 97.2486C1353.15 99.6256 1413.01 120.639 1479.7 128.245C1588.4 140.796 1706.78 116.075 1812.98 91.9239C1848 84.0321 1883.18 76.3305 1918.52 69.8649C1991.05 56.7436 2062.07 49.137 2138.43 50.5632C2160.94 51.0387 2183.62 52.3698 2206.13 54.3665C2336.01 66.0616 2463.55 98.865 2521.24 140.321" stroke="#B5B5B5" stroke-opacity="0.8" stroke-miterlimit="10"/>
<path d="M28.8438 330.58C118.042 308.616 224.747 301.39 323.283 310.993C342.623 312.895 361.63 315.367 380.137 318.41C455.83 331.055 522.688 353.495 570.705 382.495C606.885 404.174 636.895 430.987 675.743 450.193C699.918 462.174 727.428 471.206 762.607 473.964C840.302 479.954 921.998 446.485 962.679 405.41C974.35 393.619 983.52 381.354 990.689 368.803C1008.7 337.806 1015.53 305.288 1021.37 274.387C1029.7 231.029 1036.04 187.482 1073.55 150.685C1106.56 118.357 1169.09 92.6847 1241.78 88.2159C1252.62 87.5503 1263.62 87.3601 1274.79 87.7404C1345.98 90.1175 1405.84 113.127 1473.03 122.065C1582.57 136.898 1702.45 112.652 1809.32 87.6453C1844.5 79.4683 1879.68 71.1961 1915.02 64.16C1987.88 49.6125 2059.74 40.1043 2137.1 40.4846C2159.78 40.5797 2182.78 41.8158 2205.46 43.7174C2336.34 54.9371 2463.72 91.4486 2520.74 138.895" stroke="#B5B5B5" stroke-opacity="0.8" stroke-miterlimit="10"/>
<path d="M22.0078 321.928C112.207 297.872 220.746 290.17 320.782 300.819C340.456 302.911 359.629 305.669 378.469 309.091C455.33 323.164 523.021 347.98 571.205 379.928C607.552 403.888 637.229 433.364 676.41 454.757C700.919 468.069 728.929 478.243 765.108 481.856C844.804 489.557 928.834 455.803 969.182 413.492C980.686 401.321 989.522 388.77 996.358 375.839C1013.36 343.796 1018.2 310.137 1021.87 277.905C1027.2 232.741 1030.7 186.911 1066.55 147.452C1097.89 112.842 1160.58 84.2224 1233.61 79.183C1244.45 78.4224 1255.62 78.2322 1266.96 78.6125C1338.65 80.9895 1398.5 105.996 1466.19 116.36C1576.57 133.475 1698.11 109.704 1805.65 83.7469C1841 75.2846 1876.17 66.5371 1911.69 58.8354C1984.71 42.9567 2057.57 31.3567 2135.77 30.8813C2158.78 30.6911 2181.95 31.6419 2204.96 33.5436C2337.01 44.2879 2464.05 84.4125 2520.57 137.944" stroke="#B5B5B5" stroke-opacity="0.8" stroke-miterlimit="10"/>
<path d="M15.0049 313.18C106.371 287.127 216.577 278.855 318.114 290.645C338.121 292.927 357.628 296.065 376.635 299.773C454.496 315.272 523.354 342.465 571.538 377.36C607.885 403.603 637.229 435.741 676.909 459.321C701.585 473.964 730.262 485.374 767.442 489.747C849.305 499.351 935.503 465.026 975.517 421.669C987.021 409.213 995.524 396.187 1001.86 382.875C1017.87 349.882 1020.7 314.891 1022.37 281.423C1024.7 234.357 1025.2 186.436 1059.38 144.124C1089.22 107.232 1151.75 75.7599 1225.27 70.055C1236.28 69.1993 1247.45 68.914 1258.79 69.2944C1330.98 71.7665 1390.83 98.6747 1458.86 110.465C1570.06 129.767 1693.11 106.662 1801.31 79.7534C1836.66 71.0059 1872.01 61.7829 1907.69 53.4157C1981.04 36.2058 2054.74 22.6091 2133.77 21.0877C2157.11 20.6123 2180.45 21.373 2203.62 23.1796C2336.84 33.4484 2463.72 77.2813 2519.57 136.803" stroke="#B5B5B5" stroke-opacity="0.8" stroke-miterlimit="10"/>
<path d="M8.00293 304.527C100.369 276.383 212.41 267.635 315.613 280.471C335.787 283.039 355.795 286.367 374.968 290.455C453.997 307.285 523.688 336.95 572.039 374.793C608.385 403.222 637.562 438.118 677.744 463.885C702.753 479.954 732.097 492.505 770.11 497.639C853.974 509.049 942.505 474.249 982.02 429.75C993.357 417.009 1001.69 403.603 1007.7 389.911C1022.53 355.872 1023.53 319.74 1023.2 284.94C1022.7 236.068 1020.2 185.865 1052.55 140.891C1080.89 101.717 1143.41 67.3925 1217.27 61.022C1228.27 60.0712 1239.61 59.786 1251.12 60.1663C1323.98 62.6384 1383.66 91.5434 1452.19 104.665C1564.23 126.248 1688.94 103.619 1797.65 75.8548C1833.16 66.822 1868.5 57.1237 1904.35 48.0909C1978.04 29.5498 2052.57 13.9564 2132.6 11.3892C2156.11 10.6285 2179.78 11.199 2203.13 12.9105C2337.34 22.6089 2464.05 70.1499 2519.24 135.757" stroke="#B5B5B5" stroke-opacity="0.8" stroke-miterlimit="10"/>
<path d="M1 295.875C94.5336 265.639 208.241 256.321 312.945 270.298C417.65 284.275 512.184 321.452 572.372 372.226C631.393 422.049 670.741 489.843 772.444 505.531C858.475 518.748 949.341 483.472 988.355 437.833C1027.37 392.193 1027.04 339.138 1023.53 288.364C1020.03 237.59 1014.7 185.2 1045.38 137.563C1076.05 89.9274 1154.08 47.9011 1242.95 50.8486C1316.31 53.3207 1375.99 84.2224 1445.02 98.77C1557.89 122.541 1684.11 100.481 1793.48 71.7667C1902.85 43.0519 2010.72 6.9207 2130.6 1.5961C2290.99 -5.43997 2454.05 50.4683 2518.24 134.521" stroke="#B5B5B5" stroke-opacity="0.8" stroke-miterlimit="10"/>
<path d="M1 290.741C93.7 260.22 206.407 250.331 310.778 263.262C350.792 268.301 389.473 276.574 425.486 287.793C483.173 305.764 533.691 331.151 571.538 361.672C618.388 399.325 653.568 447.721 713.256 475.58C730.595 483.662 749.936 489.938 772.277 493.741C856.474 508.194 944.672 476.341 986.521 433.459C1018.2 400.846 1029.2 362.528 1032.04 323.924C1033.04 311.374 1033.2 298.728 1033.2 286.272C1033.2 235.498 1031.54 183.013 1064.55 135.377C1096.89 88.5964 1174.09 47.3308 1262.29 49.6127C1335.15 51.4193 1395.33 80.7997 1464.03 95.1571C1576.4 118.737 1699.94 100.006 1806.65 75.0947C1818.65 72.3373 1830.49 69.3898 1842.33 66.5373C1936.86 43.4324 2031.06 18.1406 2135.27 15.6684C2161.61 15.0029 2188.29 16.1439 2214.46 18.616C2343.84 31.2619 2466.22 80.5144 2521.91 145.551" stroke="#B5B5B5" stroke-opacity="0.8" stroke-miterlimit="10"/>
<path d="M1 285.511C92.8664 254.705 204.573 244.15 308.611 256.131C348.458 260.79 387.139 268.682 423.152 279.426C480.839 296.731 531.858 321.262 570.538 351.023C618.389 387.724 654.735 435.075 713.923 463.22C730.929 471.301 749.936 477.767 771.777 481.951C854.307 497.639 940.004 469.21 984.187 428.99C1018.2 398.278 1032.87 360.246 1038.54 321.642C1040.37 309.091 1041.54 296.446 1042.37 283.99C1046.04 233.121 1048.04 180.636 1083.22 133.094C1117.07 87.2649 1193.6 46.7599 1280.96 48.1862C1353.32 49.3272 1413.84 77.0911 1482.37 91.3535C1594.07 114.649 1715.12 99.3404 1819.32 78.2321C1830.99 75.8551 1842.66 73.478 1854.17 71.0059C1946.2 51.419 2037.73 29.8353 2139.6 29.5501C2165.44 29.455 2191.45 30.9763 2217.13 33.9239C2344.34 48.2812 2467.22 96.3928 2525.24 156.485" stroke="#B5B5B5" stroke-opacity="0.8" stroke-miterlimit="10"/>
<path d="M1.16699 280.376C92.033 249.38 202.906 238.16 306.61 249.094C346.458 253.278 384.972 260.79 420.985 271.153C478.839 287.698 530.191 311.468 569.705 340.468C618.556 376.219 656.236 422.524 714.757 450.954C731.596 459.131 750.27 465.691 771.611 470.16C852.473 486.99 935.503 461.983 982.353 424.616C1018.53 395.711 1037.21 357.963 1045.54 319.55C1048.38 306.999 1050.38 294.353 1052.04 281.898C1059.21 230.934 1065.05 178.448 1102.4 130.907C1137.74 86.0287 1213.6 46.1893 1300.3 46.95C1372.33 47.4254 1433.18 73.668 1501.37 87.8353C1612.41 110.94 1730.96 98.9598 1832.49 81.75C1843.83 79.8483 1855.17 77.8516 1866.5 75.7598C1956.2 59.5959 2044.9 41.8155 2144.27 43.8123C2169.45 44.2877 2194.96 46.2844 2220.13 49.5172C2345.01 65.5861 2468.55 112.557 2528.91 167.704" stroke="#8E9398" stroke-opacity="0.8" stroke-miterlimit="10"/>
<path d="M1.16699 275.242C91.1993 243.96 201.072 232.075 304.443 242.153C344.124 245.957 382.637 253.088 418.817 262.881C476.838 278.665 528.523 301.675 568.871 329.914C618.722 364.714 657.736 409.973 715.59 438.688C732.096 446.865 750.436 453.616 771.277 458.37C850.305 476.436 931.168 454.757 980.185 420.147C1018.87 392.954 1041.21 355.681 1052.21 317.268C1055.88 304.717 1058.71 292.167 1061.38 279.616C1072.22 228.652 1081.56 176.071 1121.24 128.625C1158.08 84.6976 1233.28 45.6188 1319.14 45.5237C1390.67 45.4286 1451.85 70.0549 1519.88 84.032C1630.42 106.852 1746.29 98.2943 1845.33 84.8877C1856.33 83.3664 1867.34 81.8451 1878.34 80.2287C1965.54 67.5828 2051.57 53.5106 2148.61 57.6942C2173.28 58.7401 2198.12 61.2122 2222.97 64.8254C2345.51 82.6057 2469.72 128.435 2532.24 178.639" stroke="#B5B5B5" stroke-opacity="0.8" stroke-miterlimit="10"/>
<path d="M1.16699 270.108C90.3657 238.541 199.238 226.085 302.275 235.118C341.789 238.541 380.303 245.196 416.483 254.61C474.671 269.728 526.856 291.882 567.871 319.36C618.889 353.305 659.07 397.423 716.257 426.423C732.597 434.695 750.603 441.636 770.777 446.675C848.138 465.882 926.666 447.626 978.018 415.869C1019.03 390.482 1045.04 353.495 1059.05 315.177C1063.55 302.626 1067.38 290.075 1071.05 277.524C1085.39 226.465 1098.39 173.885 1140.58 126.439C1178.76 83.3666 1253.45 45.0486 1338.65 44.2879C1409.84 43.5273 1471.36 66.5371 1539.05 80.5142C1648.93 103.144 1762.3 97.8191 1858.67 88.3109C1869.51 87.265 1880.18 86.124 1890.85 84.983C1975.71 75.7601 2058.91 65.4912 2153.61 71.8617C2177.62 73.4781 2201.96 76.3306 2226.3 80.324C2346.51 99.8158 2471.39 144.504 2536.24 189.764" stroke="#B5B5B5" stroke-opacity="0.8" stroke-miterlimit="10"/>
<path d="M1.16699 264.974C89.5321 233.121 197.571 220 299.941 228.082C339.289 231.125 377.802 237.305 414.149 246.338C472.336 260.695 525.022 282.184 566.87 308.807C618.889 341.8 660.404 384.872 716.924 414.158C733.097 422.43 750.603 429.561 770.444 434.886C846.137 455.328 922.331 440.4 976.017 411.4C1019.7 387.725 1049.21 351.213 1065.88 312.895C1071.38 300.439 1076.05 287.794 1080.55 275.243C1098.56 224.184 1115.07 171.508 1159.58 124.157C1199.26 82.0359 1273.29 44.4785 1357.65 42.9572C1428.35 41.5309 1490.2 63.0195 1557.73 76.8064C1666.93 99.1507 1777.81 97.2491 1871.67 91.5442C1882.18 90.8786 1892.51 90.213 1903.02 89.4523C1985.38 83.7474 2065.91 77.1867 2158.11 85.7441C2181.45 87.931 2205.29 91.2589 2229.13 95.5376C2347.01 116.741 2472.56 160.193 2539.58 200.603" stroke="#B5B5B5" stroke-opacity="0.8" stroke-miterlimit="10"/>
<path d="M1.33301 259.744C88.6977 227.606 195.903 213.914 297.94 220.95C337.12 223.613 375.634 229.413 411.981 237.875C470.335 251.472 523.354 272.2 566.203 298.062C619.222 330.105 661.904 372.131 717.924 401.701C733.763 410.069 751.102 417.295 770.276 422.905C844.136 444.583 918.496 433.079 974.016 406.836C1020.37 384.967 1053.38 348.836 1072.72 310.613C1079.05 298.157 1084.72 285.511 1090.06 272.96C1111.73 221.806 1131.57 169.131 1178.59 121.78C1219.6 80.5142 1293.13 43.8125 1376.83 41.4354C1447.02 39.4387 1509.21 59.3108 1576.57 72.9076C1685.27 94.9666 1793.48 96.4879 1884.68 94.5863C1894.85 94.3961 1905.02 94.1109 1915.02 93.8256C1994.88 91.5437 2072.74 88.6912 2162.61 99.5306C2185.45 102.288 2208.63 106.091 2231.97 110.75C2347.68 133.665 2473.72 175.977 2543.08 211.442" stroke="#B5B5B5" stroke-opacity="0.8" stroke-miterlimit="10"/>
<path d="M1.33301 254.61C87.8641 222.282 194.069 207.829 295.772 213.915C334.953 216.197 373.3 221.521 409.646 229.603C468.167 242.534 521.52 262.406 565.202 287.508C619.222 318.6 663.238 359.58 718.591 389.436C734.263 397.803 751.102 405.22 769.943 411.21C842.135 434.125 914.494 426.043 972.015 402.462C1021.03 382.4 1057.38 346.554 1079.55 308.426C1086.89 295.97 1093.39 283.325 1099.56 270.774C1124.74 219.62 1148.08 166.849 1197.6 119.593C1239.78 79.2783 1312.97 43.3373 1396 40.1996C1465.86 37.5373 1528.38 55.793 1595.41 69.3898C1703.44 91.2586 1809.15 96.1078 1897.85 98.1046C1907.68 98.2947 1917.52 98.4849 1927.36 98.6751C2004.89 99.9112 2079.91 100.767 2167.28 113.888C2189.45 117.216 2212.13 121.495 2235.14 126.439C2348.51 151.065 2475.22 192.236 2546.75 222.757" stroke="#B5B5B5" stroke-opacity="0.8" stroke-miterlimit="10"/>
<path d="M1.33301 249.475C87.0305 216.862 192.235 201.839 293.605 206.878C332.619 208.78 370.966 213.724 407.479 221.331C466 233.501 519.853 252.613 564.369 276.954C619.388 307.095 664.571 347.029 719.424 377.17C734.763 385.633 751.436 393.144 769.609 399.42C840.135 423.57 910.66 418.911 969.848 398.088C1021.7 379.833 1061.38 344.367 1086.22 306.239C1094.39 293.783 1101.73 281.232 1108.9 268.587C1137.74 217.337 1164.42 164.472 1216.44 117.311C1259.95 77.8519 1332.64 42.7666 1414.84 38.7732C1484.2 35.4453 1547.06 52.1797 1613.91 65.5863C1721.28 87.1699 1824.49 95.442 1910.69 101.242C1920.36 101.908 1929.86 102.478 1939.36 103.049C2014.39 107.708 2086.75 112.367 2171.78 127.675C2193.29 131.573 2215.46 136.232 2237.97 141.557C2349.01 167.895 2476.22 207.924 2550.25 233.501" stroke="#B5B5B5" stroke-opacity="0.8" stroke-miterlimit="10"/>
<path d="M1.33301 244.341C86.1968 211.442 190.401 195.754 291.437 199.842C330.284 201.364 368.465 205.832 405.145 212.964C463.833 224.373 518.019 242.724 563.368 266.4C619.555 295.59 665.905 334.479 720.091 364.905C735.263 373.367 751.436 381.164 769.276 387.629C837.967 412.921 906.825 411.875 967.847 393.62C1022.53 377.265 1065.55 341.99 1093.06 304.052C1102.06 291.597 1110.4 279.046 1118.4 266.4C1150.75 215.15 1180.92 162.19 1235.44 115.124C1280.13 76.5208 1352.49 42.1962 1434.01 37.5371C1502.87 33.6388 1566.23 48.7568 1632.75 61.9732C1739.62 83.3667 1839.99 94.8716 1923.69 104.57C1933.03 105.616 1942.2 106.662 1951.37 107.708C2024.06 115.885 2093.58 124.252 2176.28 141.747C2197.29 146.216 2218.8 151.35 2240.8 157.055C2349.51 185.105 2477.39 223.898 2553.58 244.626" stroke="#B5B5B5" stroke-opacity="0.8" stroke-miterlimit="10"/>
<path d="M1.5 239.206C85.3635 206.022 188.734 189.763 289.437 192.806C328.117 193.947 366.298 197.94 402.978 204.691C461.832 215.435 516.518 233.026 562.535 255.845C619.722 284.085 667.406 321.927 720.925 352.544C735.764 361.101 751.77 368.993 768.943 375.839C835.967 402.367 903.157 404.839 965.68 389.245C1023.37 374.888 1069.38 339.803 1099.73 301.865C1109.73 289.504 1118.9 276.858 1127.74 264.212C1163.75 212.868 1197.26 159.812 1254.45 112.842C1300.3 75.0942 1372.33 41.6253 1453.02 36.2056C1521.55 31.6417 1585.07 45.1433 1651.43 58.3597C1757.63 79.468 1855.5 94.3958 1936.7 107.897C1945.7 109.419 1954.7 110.845 1963.54 112.366C2033.73 123.966 2100.59 136.137 2180.78 155.819C2201.12 160.858 2222.13 166.468 2243.81 172.458C2350.34 202.219 2478.72 239.871 2557.25 255.56" stroke="#B5B5B5" stroke-opacity="0.8" stroke-miterlimit="10"/>
<path d="M1.5 234.071C84.5298 200.698 186.9 183.678 287.269 185.77C325.783 186.53 363.964 190.144 400.81 196.324C459.831 206.308 514.851 223.137 561.701 245.196C619.889 272.485 668.907 309.281 721.759 340.183C736.431 348.741 751.936 356.823 768.609 363.954C833.966 391.813 899.489 397.898 963.679 384.682C1024.37 372.321 1073.55 337.331 1106.73 299.488C1117.57 287.127 1127.74 274.481 1137.41 261.835C1176.92 210.491 1213.77 157.34 1273.62 110.465C1320.64 73.5729 1392.33 40.8647 1472.36 34.6843C1540.39 29.4548 1604.24 41.4352 1670.43 54.4614C1775.97 75.3795 1871.34 93.6352 1949.87 110.94C1958.7 112.842 1967.21 114.743 1975.88 116.645C2043.57 131.763 2107.76 147.642 2185.62 169.606C2205.46 175.216 2225.8 181.301 2246.97 187.671C2351.18 219.144 2480.22 255.655 2561.09 266.399" stroke="#B5B5B5" stroke-opacity="0.8" stroke-miterlimit="10"/>
<path d="M1.5 228.842C83.6962 195.183 185.066 177.593 285.102 178.638C323.449 179.019 361.629 182.157 398.476 187.957C457.497 197.179 513.017 213.248 560.701 234.547C619.889 260.98 670.24 296.635 722.426 327.822C736.931 336.475 752.103 344.652 768.275 352.068C831.798 381.163 895.821 390.862 961.512 380.213C1025.2 369.849 1077.55 335.049 1113.4 297.301C1125.24 284.94 1136.24 272.294 1146.74 259.648C1189.93 208.209 1229.94 154.963 1292.46 108.183C1340.65 72.1466 1412.01 40.2941 1491.2 33.3531C1558.89 27.458 1623.08 37.917 1688.77 50.8481C1793.81 71.481 1886.51 93.1597 1962.54 114.363C1971.04 116.74 1979.38 119.022 1987.55 121.399C2052.9 139.94 2114.09 159.622 2189.62 183.773C2208.79 189.953 2228.63 196.419 2249.31 203.17C2351.18 236.353 2480.89 271.724 2563.92 277.524" stroke="#B5B5B5" stroke-opacity="0.8" stroke-miterlimit="10"/>
<path d="M1.66699 223.708C83.0296 189.763 183.399 171.508 283.101 171.603C321.449 171.603 359.462 174.36 396.309 179.685C455.497 188.242 511.35 203.455 559.868 223.993C620.223 249.475 671.741 284.085 723.26 315.557C737.431 324.209 752.27 332.672 767.943 340.373C829.798 370.705 892.154 384.206 959.511 375.839C1026.04 367.662 1081.56 332.767 1120.24 295.114C1132.91 282.754 1144.74 270.203 1156.42 257.462C1203.1 206.022 1246.45 152.491 1311.64 105.996C1360.99 70.8157 1432.01 39.7239 1510.54 32.0222C1577.73 25.4615 1642.26 34.3993 1707.78 47.1403C1812.15 67.4878 1902.35 92.4944 1975.71 117.596C1983.88 120.353 1991.88 123.206 1999.89 125.963C2062.74 148.022 2121.26 171.413 2194.46 197.75C2212.96 204.501 2232.3 211.442 2252.48 218.478C2352.01 253.373 2482.39 287.508 2567.76 288.459" stroke="#B5B5B5" stroke-opacity="0.8" stroke-miterlimit="10"/>
<path d="M1.66699 218.574C82.0292 184.344 181.565 165.518 280.934 164.567C319.114 164.187 357.128 166.469 394.141 171.318C453.496 179.115 509.683 193.567 559.034 213.344C620.389 237.875 673.242 271.439 724.093 303.197C738.098 311.944 752.603 320.502 767.776 328.489C827.797 360.056 888.486 377.361 957.677 371.371C1027.2 365.381 1085.89 330.485 1127.24 292.833C1140.74 280.472 1153.58 267.921 1166.09 255.18C1216.44 203.646 1262.95 150.02 1330.81 103.62C1381.16 69.1998 1452.02 38.9637 1529.88 30.5965C1596.57 23.3703 1661.6 30.6916 1726.79 43.3375C1830.66 63.4949 1918.19 91.8294 1989.05 120.734C1996.88 123.967 2004.72 127.2 2012.22 130.338C2072.74 155.915 2128.43 183.013 2199.29 211.538C2217.3 218.859 2235.97 226.275 2255.81 233.692C2353.18 270.298 2484.06 303.292 2571.59 299.299" stroke="#B5B5B5" stroke-opacity="0.8" stroke-miterlimit="10"/>
<path d="M1.66699 213.439C81.1956 178.924 179.731 159.433 278.767 157.531C316.78 156.77 354.794 158.672 391.807 163.046C451.329 170.082 508.016 183.774 558.034 202.79C620.389 226.37 674.576 258.888 724.76 290.931C738.599 299.679 752.604 308.426 767.276 316.698C825.463 349.502 884.484 370.705 955.343 366.902C1027.7 363.098 1089.72 328.203 1133.74 290.551C1148.25 278.285 1161.92 265.639 1175.26 252.898C1229.11 201.269 1278.79 147.452 1349.48 101.337C1400.84 67.7734 1471.53 38.2979 1548.56 29.2651C1614.75 21.3733 1680.1 27.1734 1745.13 39.7242C1848.33 59.5964 1933.36 91.3537 2001.55 124.062C2009.22 127.675 2016.56 131.383 2023.89 134.996C2081.91 163.996 2134.93 194.803 2203.29 225.705C2220.63 233.501 2238.8 241.393 2258.14 249.19C2353.18 287.413 2484.73 319.361 2574.59 310.423" stroke="#B5B5B5" stroke-opacity="0.8" stroke-miterlimit="10"/>
<path d="M1.66699 208.305C80.3619 173.6 177.897 153.442 276.599 150.495C314.446 149.354 352.46 150.78 389.64 154.774C449.161 161.144 506.348 174.075 557.2 192.236C620.556 214.865 676.076 246.338 725.594 278.666C739.099 287.508 752.77 296.446 767.109 305.003C823.629 339.043 880.816 364.049 953.509 362.623C1028.87 361.102 1093.89 326.016 1140.74 288.554C1156.08 276.288 1170.75 263.643 1184.93 250.902C1242.45 199.272 1295.3 145.265 1368.66 99.2456C1421.18 66.4423 1491.54 37.8226 1567.9 28.0291C1633.75 19.4717 1699.28 23.7504 1764.13 36.1111C1866.67 55.793 1949.2 90.8783 2014.89 127.39C2022.23 131.478 2029.4 135.567 2036.4 139.655C2091.92 172.174 2142.27 206.688 2208.29 239.777C2225.13 248.144 2242.81 256.511 2261.48 264.688C2354.18 304.623 2486.39 335.43 2578.43 321.548" stroke="#B5B5B5" stroke-opacity="0.8" stroke-miterlimit="10"/>
<path d="M1.83398 203.171C79.6953 168.18 176.23 147.357 274.432 143.459C312.112 141.938 350.126 142.888 387.306 146.407C446.994 152.016 504.515 164.187 556.2 181.587C620.556 203.266 677.243 233.597 726.261 266.305C739.599 275.148 752.937 284.276 766.609 293.118C821.295 328.489 876.982 355.397 951.175 358.154C1029.04 361.007 1097.73 323.735 1147.25 286.272C1163.58 274.007 1178.92 261.361 1194.1 248.62C1255.12 196.895 1311.14 142.603 1387.5 96.9638C1441.02 64.9212 1511.21 37.2523 1586.74 26.6982C1652.09 17.4752 1718.12 20.1375 1782.64 32.4982C1884.68 51.8949 1964.54 90.4032 2027.56 130.718C2034.56 135.187 2041.4 139.751 2048.07 144.22C2101.26 180.161 2148.77 218.479 2212.3 253.754C2228.47 262.692 2245.64 271.535 2263.98 279.997C2354.35 321.643 2487.23 351.308 2581.59 332.482" stroke="#B5B5B5" stroke-opacity="0.8" stroke-miterlimit="10"/>
<path d="M1.83398 197.941C78.695 162.665 174.396 141.272 272.265 136.327C309.778 134.426 347.792 134.996 384.972 138.039C444.827 142.983 502.681 154.298 555.2 170.937C620.723 191.665 678.577 220.951 726.928 253.944C739.933 262.882 752.937 272.105 766.109 281.233C818.961 317.839 872.647 350.643 949.008 353.59C1029.87 356.728 1101.73 321.262 1154.08 283.895C1171.25 271.629 1187.59 258.983 1203.6 246.242C1268.29 194.518 1327.31 139.941 1406.51 94.5864C1461.03 63.3044 1531.05 36.5864 1605.91 25.1765C1670.93 15.288 1737.12 16.429 1801.48 28.5995C1902.85 47.8061 1980.21 89.5471 2040.73 133.855C2047.4 138.8 2054.07 143.744 2060.41 148.688C2111.09 188.147 2155.94 230.174 2217.13 267.636C2232.64 277.144 2249.31 286.462 2267.15 295.21C2355.18 338.567 2488.56 366.997 2585.26 343.321" stroke="#B5B5B5" stroke-opacity="0.8" stroke-miterlimit="10"/>
<path d="M1.83398 192.806C77.8613 157.245 172.562 135.186 270.097 129.291C307.611 127.009 345.458 127.104 382.804 129.671C442.659 133.855 501.013 144.409 554.366 160.288C620.89 180.065 680.078 208.304 727.761 241.583C740.599 250.521 753.104 260.029 765.942 269.442C816.96 307.38 868.812 343.986 947.007 349.216C1030.54 354.731 1105.73 319.075 1160.92 281.803C1178.92 269.537 1196.26 256.986 1213.1 244.15C1281.29 192.33 1343.48 137.468 1425.51 92.3992C1481.03 61.8778 1550.89 36.0155 1624.92 23.9401C1689.44 13.3859 1756.13 13.0056 1820.15 24.986C1920.86 43.9073 1995.72 89.0713 2053.57 137.183C2060.07 142.507 2066.24 147.927 2072.41 153.347C2120.76 196.229 2162.78 242.058 2221.63 281.708C2236.64 291.786 2252.64 301.485 2269.98 310.708C2355.85 355.777 2489.73 383.065 2588.76 354.445" stroke="#B5B5B5" stroke-opacity="0.8" stroke-miterlimit="10"/>
<path d="M2.00098 187.672C106.038 138.134 245.755 113.603 380.637 121.399C515.519 129.101 643.898 168.94 728.595 229.318C791.952 274.577 844.804 335.619 945.007 344.747C1031.04 352.639 1109.9 316.698 1167.75 279.521C1263.45 217.908 1338.65 145.931 1444.52 90.1174C1550.56 34.3043 1701.95 -4.29909 1838.99 21.278C1950.37 42.0059 2027.06 99.7207 2084.58 157.911C2142.1 216.101 2189.45 279.236 2272.98 326.111C2356.51 372.987 2491.06 399.039 2592.43 365.475" stroke="#B5B5B5" stroke-opacity="0.8" stroke-miterlimit="10"/>
</g>
</svg>
