<svg width="199" height="211" viewBox="0 0 199 211" fill="none" xmlns="http://www.w3.org/2000/svg">
<path fill-rule="evenodd" clip-rule="evenodd" d="M168.34 162.355C148.603 162.355 132.603 178.355 132.603 198.092C132.603 217.829 148.603 233.829 168.34 233.829C188.077 233.829 204.077 217.829 204.077 198.092C204.077 178.355 188.077 162.355 168.34 162.355ZM134.157 198.092C134.157 179.213 149.461 163.909 168.34 163.909C187.219 163.909 202.523 179.213 202.523 198.092C202.523 216.971 187.219 232.276 168.34 232.276C149.461 232.276 134.157 216.971 134.157 198.092Z" fill="#00E469" fill-opacity="0.25"/>
<path fill-rule="evenodd" clip-rule="evenodd" d="M168.34 156.528C145.385 156.528 126.776 175.137 126.776 198.092C126.776 221.047 145.385 239.656 168.34 239.656C191.295 239.656 209.904 221.047 209.904 198.092C209.904 175.137 191.295 156.528 168.34 156.528ZM128.33 198.092C128.33 175.995 146.243 158.082 168.34 158.082C190.437 158.082 208.35 175.995 208.35 198.092C208.35 220.189 190.437 238.102 168.34 238.102C146.243 238.102 128.33 220.189 128.33 198.092Z" fill="#00E469" fill-opacity="0.25"/>
<path fill-rule="evenodd" clip-rule="evenodd" d="M120.949 198.092C120.949 171.919 142.167 150.702 168.34 150.702C194.513 150.702 215.731 171.919 215.731 198.092C215.731 224.265 194.513 245.483 168.34 245.483C142.167 245.483 120.949 224.265 120.949 198.092ZM168.34 152.255C143.025 152.255 122.503 172.777 122.503 198.092C122.503 223.407 143.025 243.929 168.34 243.929C193.655 243.929 214.177 223.407 214.177 198.092C214.177 172.777 193.655 152.255 168.34 152.255Z" fill="#00E469" fill-opacity="0.25"/>
<path fill-rule="evenodd" clip-rule="evenodd" d="M115.123 198.092C115.123 168.701 138.949 144.875 168.34 144.875C197.731 144.875 221.557 168.701 221.557 198.092C221.557 227.483 197.731 251.31 168.34 251.31C138.949 251.31 115.123 227.483 115.123 198.092ZM168.34 146.429C139.807 146.429 116.677 169.559 116.677 198.092C116.677 226.625 139.807 249.756 168.34 249.756C196.873 249.756 220.004 226.625 220.004 198.092C220.004 169.559 196.873 146.429 168.34 146.429Z" fill="#00E469" fill-opacity="0.25"/>
<path fill-rule="evenodd" clip-rule="evenodd" d="M109.296 198.092C109.296 165.483 135.731 139.048 168.34 139.048C200.949 139.048 227.384 165.483 227.384 198.092C227.384 230.701 200.949 257.136 168.34 257.136C135.731 257.136 109.296 230.701 109.296 198.092ZM168.34 140.602C136.589 140.602 110.85 166.341 110.85 198.092C110.85 229.843 136.589 255.582 168.34 255.582C200.091 255.582 225.83 229.843 225.83 198.092C225.83 166.341 200.091 140.602 168.34 140.602Z" fill="#00E469" fill-opacity="0.25"/>
<path fill-rule="evenodd" clip-rule="evenodd" d="M168.34 133.221C132.513 133.221 103.469 162.265 103.469 198.092C103.469 233.919 132.513 262.963 168.34 262.963C204.167 262.963 233.211 233.919 233.211 198.092C233.211 162.265 204.167 133.221 168.34 133.221ZM105.023 198.092C105.023 163.123 133.371 134.775 168.34 134.775C203.309 134.775 231.657 163.123 231.657 198.092C231.657 233.061 203.309 261.409 168.34 261.409C133.371 261.409 105.023 233.061 105.023 198.092Z" fill="#00E469" fill-opacity="0.25"/>
<path fill-rule="evenodd" clip-rule="evenodd" d="M97.6426 198.092C97.6426 159.047 129.295 127.395 168.34 127.395C207.385 127.395 239.038 159.047 239.038 198.092C239.038 237.137 207.385 268.79 168.34 268.79C129.295 268.79 97.6426 237.137 97.6426 198.092ZM168.34 128.949C130.153 128.949 99.1964 159.905 99.1964 198.092C99.1964 236.279 130.153 267.236 168.34 267.236C206.527 267.236 237.484 236.279 237.484 198.092C237.484 159.905 206.527 128.949 168.34 128.949Z" fill="#00E469" fill-opacity="0.25"/>
<path fill-rule="evenodd" clip-rule="evenodd" d="M168.34 121.568C126.077 121.568 91.8159 155.829 91.8159 198.092C91.8159 240.355 126.077 274.616 168.34 274.616C210.603 274.616 244.864 240.355 244.864 198.092C244.864 155.829 210.603 121.568 168.34 121.568ZM93.3697 198.092C93.3697 156.687 126.935 123.122 168.34 123.122C209.745 123.122 243.31 156.687 243.31 198.092C243.31 239.497 209.745 273.063 168.34 273.063C126.935 273.063 93.3697 239.497 93.3697 198.092Z" fill="#00E469" fill-opacity="0.25"/>
<path fill-rule="evenodd" clip-rule="evenodd" d="M85.9892 198.092C85.9892 152.611 122.859 115.741 168.34 115.741C213.821 115.741 250.691 152.611 250.691 198.092C250.691 243.573 213.821 280.443 168.34 280.443C122.859 280.443 85.9892 243.573 85.9892 198.092ZM168.34 117.295C123.717 117.295 87.5429 153.469 87.5429 198.092C87.5429 242.715 123.717 278.889 168.34 278.889C212.963 278.889 249.137 242.715 249.137 198.092C249.137 153.469 212.963 117.295 168.34 117.295Z" fill="#00E469" fill-opacity="0.25"/>
<path fill-rule="evenodd" clip-rule="evenodd" d="M168.34 109.915C119.641 109.915 80.1624 149.393 80.1624 198.092C80.1624 246.791 119.641 286.27 168.34 286.27C217.039 286.27 256.518 246.791 256.518 198.092C256.518 149.393 217.039 109.915 168.34 109.915ZM81.7162 198.092C81.7162 150.251 120.499 111.468 168.34 111.468C216.181 111.468 254.964 150.251 254.964 198.092C254.964 245.933 216.181 284.716 168.34 284.716C120.499 284.716 81.7162 245.933 81.7162 198.092Z" fill="#00E469" fill-opacity="0.25"/>
<path fill-rule="evenodd" clip-rule="evenodd" d="M74.3357 198.092C74.3357 146.175 116.423 104.088 168.34 104.088C220.257 104.088 262.344 146.175 262.344 198.092C262.344 250.009 220.257 292.097 168.34 292.097C116.423 292.097 74.3357 250.009 74.3357 198.092ZM168.34 105.642C117.281 105.642 75.8895 147.033 75.8895 198.092C75.8895 249.151 117.281 290.543 168.34 290.543C219.399 290.543 260.791 249.151 260.791 198.092C260.791 147.033 219.399 105.642 168.34 105.642Z" fill="#00E469" fill-opacity="0.25"/>
<path fill-rule="evenodd" clip-rule="evenodd" d="M168.34 98.2612C113.205 98.2612 68.509 142.957 68.509 198.092C68.509 253.227 113.205 297.923 168.34 297.923C223.475 297.923 268.171 253.227 268.171 198.092C268.171 142.957 223.475 98.2612 168.34 98.2612ZM70.0628 198.092C70.0628 143.815 114.063 99.8149 168.34 99.8149C222.617 99.8149 266.617 143.815 266.617 198.092C266.617 252.369 222.617 296.369 168.34 296.369C114.063 296.369 70.0628 252.369 70.0628 198.092Z" fill="#00E469" fill-opacity="0.25"/>
<path fill-rule="evenodd" clip-rule="evenodd" d="M62.6823 198.092C62.6823 139.739 109.987 92.4344 168.34 92.4344C226.693 92.4344 273.998 139.739 273.998 198.092C273.998 256.445 226.693 303.75 168.34 303.75C109.987 303.75 62.6823 256.445 62.6823 198.092ZM168.34 93.9882C110.845 93.9882 64.2361 140.597 64.2361 198.092C64.2361 255.587 110.845 302.196 168.34 302.196C225.835 302.196 272.444 255.587 272.444 198.092C272.444 140.597 225.835 93.9882 168.34 93.9882Z" fill="#00E469" fill-opacity="0.25"/>
<path fill-rule="evenodd" clip-rule="evenodd" d="M168.34 86.6077C106.769 86.6077 56.8556 136.521 56.8556 198.092C56.8556 259.663 106.769 309.577 168.34 309.577C229.911 309.577 279.825 259.663 279.825 198.092C279.825 136.521 229.911 86.6077 168.34 86.6077ZM58.4094 198.092C58.4094 137.379 107.627 88.1615 168.34 88.1615C229.053 88.1615 278.271 137.379 278.271 198.092C278.271 258.805 229.053 308.023 168.34 308.023C107.627 308.023 58.4094 258.805 58.4094 198.092Z" fill="#00E469" fill-opacity="0.25"/>
<path fill-rule="evenodd" clip-rule="evenodd" d="M51.0289 198.092C51.0289 133.303 103.551 80.781 168.34 80.781C233.129 80.781 285.651 133.303 285.651 198.092C285.651 262.881 233.129 315.403 168.34 315.403C103.551 315.403 51.0289 262.881 51.0289 198.092ZM168.34 82.3348C104.409 82.3348 52.5827 134.161 52.5827 198.092C52.5827 262.023 104.409 313.85 168.34 313.85C232.271 313.85 284.097 262.023 284.097 198.092C284.097 134.161 232.271 82.3348 168.34 82.3348Z" fill="#00E469" fill-opacity="0.25"/>
<path fill-rule="evenodd" clip-rule="evenodd" d="M87.914 171.311C73.1229 171.311 61.1323 183.301 61.1323 198.092C61.1323 212.883 73.1229 224.874 87.914 224.874C102.705 224.874 114.696 212.883 114.696 198.092C114.696 183.301 102.705 171.311 87.914 171.311ZM62.2967 198.092C62.2967 183.944 73.766 172.475 87.914 172.475C102.062 172.475 113.531 183.944 113.531 198.092C113.531 212.24 102.062 223.71 87.914 223.71C73.766 223.71 62.2967 212.24 62.2967 198.092Z" fill="#00E469" fill-opacity="0.25"/>
<path fill-rule="evenodd" clip-rule="evenodd" d="M87.914 166.944C70.7113 166.944 56.7657 180.89 56.7657 198.092C56.7657 215.295 70.7113 229.241 87.914 229.241C105.117 229.241 119.062 215.295 119.062 198.092C119.062 180.89 105.117 166.944 87.914 166.944ZM57.9301 198.092C57.9301 181.533 71.3544 168.108 87.914 168.108C104.474 168.108 117.898 181.533 117.898 198.092C117.898 214.652 104.474 228.076 87.914 228.076C71.3544 228.076 57.9301 214.652 57.9301 198.092Z" fill="#00E469" fill-opacity="0.25"/>
<path fill-rule="evenodd" clip-rule="evenodd" d="M52.3991 198.092C52.3991 178.478 68.2997 162.577 87.914 162.577C107.528 162.577 123.429 178.478 123.429 198.092C123.429 217.707 107.528 233.607 87.914 233.607C68.2997 233.607 52.3991 217.707 52.3991 198.092ZM87.914 163.742C68.9428 163.742 53.5635 179.121 53.5635 198.092C53.5635 217.064 68.9428 232.443 87.914 232.443C106.885 232.443 122.265 217.064 122.265 198.092C122.265 179.121 106.885 163.742 87.914 163.742Z" fill="#00E469" fill-opacity="0.25"/>
<path fill-rule="evenodd" clip-rule="evenodd" d="M48.0325 198.092C48.0325 176.066 65.8881 158.211 87.914 158.211C109.94 158.211 127.796 176.066 127.796 198.092C127.796 220.118 109.94 237.974 87.914 237.974C65.8881 237.974 48.0325 220.118 48.0325 198.092ZM87.914 159.375C66.5312 159.375 49.1969 176.709 49.1969 198.092C49.1969 219.475 66.5312 236.809 87.914 236.809C109.297 236.809 126.631 219.475 126.631 198.092C126.631 176.709 109.297 159.375 87.914 159.375Z" fill="#00E469" fill-opacity="0.25"/>
<path fill-rule="evenodd" clip-rule="evenodd" d="M43.6659 198.092C43.6659 173.655 63.4765 153.844 87.914 153.844C112.352 153.844 132.162 173.655 132.162 198.092C132.162 222.53 112.352 242.34 87.914 242.34C63.4765 242.34 43.6659 222.53 43.6659 198.092ZM87.914 155.009C64.1196 155.009 44.8303 174.298 44.8303 198.092C44.8303 221.887 64.1196 241.176 87.914 241.176C111.709 241.176 130.998 221.887 130.998 198.092C130.998 174.298 111.709 155.009 87.914 155.009Z" fill="#00E469" fill-opacity="0.25"/>
<path fill-rule="evenodd" clip-rule="evenodd" d="M87.914 149.478C61.0649 149.478 39.2993 171.243 39.2993 198.092C39.2993 224.941 61.0649 246.707 87.914 246.707C114.763 246.707 136.529 224.941 136.529 198.092C136.529 171.243 114.763 149.478 87.914 149.478ZM40.4637 198.092C40.4637 171.886 61.708 150.642 87.914 150.642C114.12 150.642 135.364 171.886 135.364 198.092C135.364 224.298 114.12 245.543 87.914 245.543C61.708 245.543 40.4637 224.298 40.4637 198.092Z" fill="#00E469" fill-opacity="0.25"/>
<path fill-rule="evenodd" clip-rule="evenodd" d="M34.9327 198.092C34.9327 168.831 58.6533 145.111 87.914 145.111C117.175 145.111 140.895 168.831 140.895 198.092C140.895 227.353 117.175 251.074 87.914 251.074C58.6533 251.074 34.9327 227.353 34.9327 198.092ZM87.914 146.275C59.2964 146.275 36.0972 169.475 36.0972 198.092C36.0972 226.71 59.2964 249.909 87.914 249.909C116.532 249.909 139.731 226.71 139.731 198.092C139.731 169.475 116.532 146.275 87.914 146.275Z" fill="#00E469" fill-opacity="0.25"/>
<path fill-rule="evenodd" clip-rule="evenodd" d="M87.914 140.744C56.2417 140.744 30.5661 166.42 30.5661 198.092C30.5661 229.765 56.2417 255.44 87.914 255.44C119.586 255.44 145.262 229.765 145.262 198.092C145.262 166.42 119.586 140.744 87.914 140.744ZM31.7306 198.092C31.7306 167.063 56.8848 141.909 87.914 141.909C118.943 141.909 144.098 167.063 144.098 198.092C144.098 229.122 118.943 254.276 87.914 254.276C56.8848 254.276 31.7306 229.122 31.7306 198.092Z" fill="#00E469" fill-opacity="0.25"/>
<path fill-rule="evenodd" clip-rule="evenodd" d="M26.1995 198.092C26.1995 164.008 53.8301 136.378 87.914 136.378C121.998 136.378 149.629 164.008 149.629 198.092C149.629 232.176 121.998 259.807 87.914 259.807C53.8301 259.807 26.1995 232.176 26.1995 198.092ZM87.914 137.542C54.4732 137.542 27.364 164.651 27.364 198.092C27.364 231.533 54.4732 258.642 87.914 258.642C121.355 258.642 148.464 231.533 148.464 198.092C148.464 164.651 121.355 137.542 87.914 137.542Z" fill="#00E469" fill-opacity="0.25"/>
<path fill-rule="evenodd" clip-rule="evenodd" d="M87.914 132.011C51.4185 132.011 21.833 161.597 21.833 198.092C21.833 234.588 51.4185 264.173 87.914 264.173C124.41 264.173 153.995 234.588 153.995 198.092C153.995 161.597 124.41 132.011 87.914 132.011ZM22.9974 198.092C22.9974 162.24 52.0616 133.176 87.914 133.176C123.767 133.176 152.831 162.24 152.831 198.092C152.831 233.945 123.767 263.009 87.914 263.009C52.0616 263.009 22.9974 233.945 22.9974 198.092Z" fill="#00E469" fill-opacity="0.25"/>
<path fill-rule="evenodd" clip-rule="evenodd" d="M17.4664 198.092C17.4664 159.185 49.0069 127.645 87.914 127.645C126.821 127.645 158.362 159.185 158.362 198.092C158.362 236.999 126.821 268.54 87.914 268.54C49.0069 268.54 17.4664 236.999 17.4664 198.092ZM87.914 128.809C49.65 128.809 18.6308 159.828 18.6308 198.092C18.6308 236.356 49.65 267.376 87.914 267.376C126.178 267.376 157.197 236.356 157.197 198.092C157.197 159.828 126.178 128.809 87.914 128.809Z" fill="#00E469" fill-opacity="0.25"/>
<path fill-rule="evenodd" clip-rule="evenodd" d="M87.914 123.278C46.5953 123.278 13.0998 156.773 13.0998 198.092C13.0998 239.411 46.5953 272.907 87.914 272.907C129.233 272.907 162.728 239.411 162.728 198.092C162.728 156.773 129.233 123.278 87.914 123.278ZM14.2642 198.092C14.2642 157.417 47.2384 124.442 87.914 124.442C128.59 124.442 161.564 157.417 161.564 198.092C161.564 238.768 128.59 271.742 87.914 271.742C47.2384 271.742 14.2642 238.768 14.2642 198.092Z" fill="#00E469" fill-opacity="0.25"/>
<path fill-rule="evenodd" clip-rule="evenodd" d="M8.73318 198.092C8.73318 154.362 44.1837 118.911 87.914 118.911C131.644 118.911 167.095 154.362 167.095 198.092C167.095 241.823 131.644 277.273 87.914 277.273C44.1837 277.273 8.73318 241.823 8.73318 198.092ZM87.914 120.076C44.8268 120.076 9.89761 155.005 9.89761 198.092C9.89761 241.18 44.8268 276.109 87.914 276.109C131.001 276.109 165.93 241.18 165.93 198.092C165.93 155.005 131.001 120.076 87.914 120.076Z" fill="#00E469" fill-opacity="0.25"/>
<path fill-rule="evenodd" clip-rule="evenodd" d="M87.914 114.545C41.7721 114.545 4.36659 151.95 4.36659 198.092C4.36659 244.234 41.7721 281.64 87.914 281.64C134.056 281.64 171.462 244.234 171.462 198.092C171.462 151.95 134.056 114.545 87.914 114.545ZM5.53102 198.092C5.53102 152.593 42.4152 115.709 87.914 115.709C133.413 115.709 170.297 152.593 170.297 198.092C170.297 243.591 133.413 280.475 87.914 280.475C42.4152 280.475 5.53102 243.591 5.53102 198.092Z" fill="#00E469" fill-opacity="0.25"/>
<path fill-rule="evenodd" clip-rule="evenodd" d="M0 198.092C0 149.539 39.3605 110.178 87.914 110.178C136.468 110.178 175.828 149.539 175.828 198.092C175.828 246.646 136.468 286.006 87.914 286.006C39.3605 286.006 0 246.646 0 198.092ZM87.914 111.343C40.0036 111.343 1.16442 150.182 1.16442 198.092C1.16442 246.003 40.0036 284.842 87.914 284.842C135.825 284.842 174.664 246.003 174.664 198.092C174.664 150.182 135.825 111.343 87.914 111.343Z" fill="#00E469" fill-opacity="0.25"/>
<path d="M135.859 126.942L137.701 131.919L142.678 133.761L137.701 135.603L135.859 140.58L134.017 135.603L129.04 133.761L134.017 131.919L135.859 126.942Z" fill="#B00000" fill-opacity="0.43"/>
<path d="M86.0265 76.5847L86.8766 78.882L89.1738 79.732L86.8766 80.5821L86.0265 82.8793L85.1764 80.5821L82.8792 79.732L85.1764 78.882L86.0265 76.5847Z" fill="#B00000" fill-opacity="0.43"/>
<path d="M109.107 10.4912L109.957 12.7885L112.254 13.6385L109.957 14.4886L109.107 16.7858L108.257 14.4886L105.959 13.6385L108.257 12.7885L109.107 10.4912Z" fill="#BDE5FB" fill-opacity="0.3"/>
<path d="M122.745 16.7859L123.595 19.0831L125.892 19.9332L123.595 20.7833L122.745 23.0805L121.895 20.7833L119.598 19.9332L121.895 19.0831L122.745 16.7859Z" fill="black" fill-opacity="0.4"/>
<path d="M45.1115 0L45.9615 2.29725L48.2588 3.14731L45.9615 3.99737L45.1115 6.29462L44.2614 3.99737L41.9641 3.14731L44.2614 2.29725L45.1115 0Z" fill="#B00000" fill-opacity="0.43"/>
<path d="M45.1115 94.4194L45.9615 96.7167L48.2588 97.5667L45.9615 98.4168L45.1115 100.714L44.2614 98.4168L41.9641 97.5667L44.2614 96.7167L45.1115 94.4194Z" fill="#B00000" fill-opacity="0.43"/>
<path d="M34.6204 145.826L35.4705 148.123L37.7677 148.973L35.4705 149.823L34.6204 152.12L33.7703 149.823L31.4731 148.973L33.7703 148.123L34.6204 145.826Z" fill="#B00000" fill-opacity="0.43"/>
</svg>
