<svg width="16" height="17" viewBox="0 0 16 17" fill="none" xmlns="http://www.w3.org/2000/svg">
<path fill-rule="evenodd" clip-rule="evenodd" d="M14.3905 2.70229H9.3255V1.50879L1 2.79379V14.0573L9.3255 15.4913V13.7223H14.3905C14.5439 13.7301 14.6941 13.6768 14.8083 13.5741C14.9226 13.4714 14.9915 13.3276 15 13.1743V3.24979C14.9913 3.09652 14.9224 2.95291 14.8082 2.85032C14.694 2.74773 14.5438 2.69451 14.3905 2.70229ZM14.4705 13.2653H9.3085L9.3 12.3208H10.5435V11.2208H9.2905L9.2845 10.5708H10.5435V9.47079H9.275L9.269 8.82079H10.5435V7.72079H9.265V7.07079H10.5435V5.97079H9.265V5.32079H10.5435V4.22079H9.265V3.22079H14.4705V13.2653Z" fill="#40B97D"/>
<path d="M13.405 4.21973H11.2435V5.31973H13.405V4.21973Z" fill="#40B97D"/>
<path d="M13.405 5.96973H11.2435V7.06973H13.405V5.96973Z" fill="#40B97D"/>
<path d="M13.405 7.7207H11.2435V8.8207H13.405V7.7207Z" fill="#40B97D"/>
<path d="M13.405 9.4707H11.2435V10.5707H13.405V9.4707Z" fill="#40B97D"/>
<path d="M13.405 11.2217H11.2435V12.3217H13.405V11.2217Z" fill="#40B97D"/>
<path fill-rule="evenodd" clip-rule="evenodd" d="M3.1735 5.83622L4.2465 5.77472L4.921 7.62922L5.718 5.69822L6.791 5.63672L5.488 8.26972L6.791 10.9092L5.6565 10.8327L4.8905 8.82072L4.124 10.7562L3.0815 10.6642L4.2925 8.33272L3.1735 5.83622Z" fill="white"/>
</svg>
