<svg width="1350" height="6" viewBox="0 0 1350 6" fill="none" xmlns="http://www.w3.org/2000/svg">
<path d="M0.333333 3C0.333333 4.47276 1.52724 5.66667 3 5.66667C4.47276 5.66667 5.66667 4.47276 5.66667 3C5.66667 1.52724 4.47276 0.333333 3 0.333333C1.52724 0.333333 0.333333 1.52724 0.333333 3ZM1344.33 3.00012C1344.33 4.47288 1345.53 5.66678 1347 5.66678C1348.47 5.66678 1349.67 4.47288 1349.67 3.00012C1349.67 1.52736 1348.47 0.333451 1347 0.333451C1345.53 0.333451 1344.33 1.52736 1344.33 3.00012ZM3 3.5L1347 3.50012L1347 2.50012L3 2.5L3 3.5Z" fill="#4E6F8D"/>
</svg>
